<?xml version="1.0" encoding="utf-8"?>
<!-- Generator: Adobe Illustrator 24.1.2, SVG Export Plug-In . SVG Version: 6.00 Build 0)  -->
<svg version="1.1" id="Layer_1" xmlns="http://www.w3.org/2000/svg" xmlns:xlink="http://www.w3.org/1999/xlink" x="0px" y="0px"
	 viewBox="0 0 57.9 57.9" style="enable-background:new 0 0 57.9 57.9;" xml:space="preserve">
<style type="text/css">
	.st0{fill-rule:evenodd;clip-rule:evenodd;fill:#FFFFFF;}
	.st1{fill:#FFFFFF;}
</style>
<path id="LOGO_1_" class="st0" d="M57.7,17c-0.1-3.1-0.6-5.2-1.3-7c-0.7-1.9-1.7-3.5-3.3-5.1c-1.6-1.6-3.2-2.6-5.1-3.3
	c-1.8-0.7-3.9-1.2-7-1.3C37.8,0,36.8,0,28.9,0C21.1,0,20.1,0,17,0.2c-3.1,0.1-5.2,0.6-7,1.3C8.1,2.3,6.5,3.2,4.9,4.9
	C3.2,6.5,2.3,8.1,1.5,10c-0.7,1.8-1.2,3.9-1.3,7C0,20.1,0,21.1,0,28.9c0,7.9,0,8.8,0.2,11.9c0.1,3.1,0.6,5.2,1.3,7
	c0.7,1.9,1.7,3.5,3.3,5.1c1.6,1.6,3.2,2.6,5.1,3.3c1.8,0.7,3.9,1.2,7,1.3c3.1,0.1,4.1,0.2,11.9,0.2c7.9,0,8.8,0,11.9-0.2
	c3.1-0.1,5.2-0.6,7-1.3c1.9-0.7,3.5-1.7,5.1-3.3c1.6-1.6,2.6-3.2,3.3-5.1c0.7-1.8,1.2-3.9,1.3-7c0.1-3.1,0.2-4.1,0.2-11.9
	C57.9,21.1,57.9,20.1,57.7,17z M28.9,43.8c-8.2,0-14.9-6.7-14.9-14.9c0-8.2,6.7-14.9,14.9-14.9c8.2,0,14.9,6.7,14.9,14.9
	C43.8,37.2,37.2,43.8,28.9,43.8z M44.4,17c-1.9,0-3.5-1.6-3.5-3.5c0-1.9,1.6-3.5,3.5-3.5c1.9,0,3.5,1.6,3.5,3.5
	C47.9,15.4,46.3,17,44.4,17z M38.6,28.9c0,5.3-4.3,9.6-9.6,9.6c-5.3,0-9.6-4.3-9.6-9.6c0-5.3,4.3-9.6,9.6-9.6
	C34.3,19.3,38.6,23.6,38.6,28.9z"/>
</svg>
