<?xml version="1.0" encoding="utf-8"?>
<!-- Generator: Adobe Illustrator 24.1.2, SVG Export Plug-In . SVG Version: 6.00 Build 0)  -->
<svg version="1.1" id="Layer_1" xmlns="http://www.w3.org/2000/svg" xmlns:xlink="http://www.w3.org/1999/xlink" x="0px" y="0px"
	 viewBox="0 0 71.9 50.6" style="enable-background:new 0 0 71.9 50.6;" xml:space="preserve">
<style type="text/css">
	.st0{fill-rule:evenodd;clip-rule:evenodd;fill:#FFFFFF;}
	.st1{fill:#FFFFFF;}
</style>
<g id="YOUTUBE_006_1_">
	<path id="LOGO_4_" class="st0" d="M71.2,10.9c0,0-0.7-5-2.9-7.1c-2.7-2.9-5.8-2.9-7.2-3C51.1,0,36,0,36,0h0c0,0-15.1,0-25.2,0.7
		c-1.4,0.2-4.5,0.2-7.2,3C1.4,6,0.7,10.9,0.7,10.9S0,16.7,0,22.5V28c0,5.8,0.7,11.6,0.7,11.6s0.7,5,2.9,7.1c2.7,2.9,6.3,2.8,7.9,3.1
		c5.8,0.6,24.4,0.7,24.4,0.7s15.1,0,25.2-0.7c1.4-0.2,4.5-0.2,7.2-3c2.2-2.2,2.9-7.1,2.9-7.1s0.7-5.8,0.7-11.6v-5.5
		C71.9,16.7,71.2,10.9,71.2,10.9z M28.5,34.6V14.4l19.4,10.1L28.5,34.6z"/>
</g>
</svg>
