<?xml version="1.0" encoding="utf-8"?>
<!-- Generator: Adobe Illustrator 24.1.2, SVG Export Plug-In . SVG Version: 6.00 Build 0)  -->
<svg version="1.1" id="Layer_1" xmlns="http://www.w3.org/2000/svg" xmlns:xlink="http://www.w3.org/1999/xlink" x="0px" y="0px"
	 viewBox="0 0 350 72.2" style="enable-background:new 0 0 350 72.2;" xml:space="preserve">
<style type="text/css">
	.st0{fill:#FFFFFF;}
	.st1{fill:url(#XMLID_2_);}
	.st2{fill:url(#XMLID_3_);}
	.st3{fill:url(#XMLID_4_);}
	.st4{fill:#AD1E4D;}
	.st5{fill:url(#XMLID_11_);}
	.st6{fill:#EC4649;}
</style>
<g id="XMLID_53_">
	<g id="XMLID_60_">
		<linearGradient id="XMLID_2_" gradientUnits="userSpaceOnUse" x1="62.0337" y1="67.1944" x2="62.0337" y2="-9.094947e-13">
			<stop  offset="0" style="stop-color:#6F2E8C"/>
			<stop  offset="1" style="stop-color:#E91F4A"/>
		</linearGradient>
		<path id="XMLID_10_" class="st1" d="M37.1,67.2L64.5,20L76.2,0c0,0,0.6,0,10.8,0L75.5,20L48.3,67.2"/>
		<g id="XMLID_61_">
			<linearGradient id="XMLID_3_" gradientUnits="userSpaceOnUse" x1="32.4278" y1="67.1944" x2="32.4278" y2="11.0172">
				<stop  offset="0" style="stop-color:#6F2E8C"/>
				<stop  offset="1" style="stop-color:#E91F4A"/>
			</linearGradient>
			<path id="XMLID_9_" class="st2" d="M0,11h43.3L32.4,29.7L26.9,20h-11l16.5,28.3L54,11c0,0,0.6,0,10.8,0L32.3,67.2L0,11z"/>
			<linearGradient id="XMLID_4_" gradientUnits="userSpaceOnUse" x1="73.2456" y1="19.9984" x2="73.2456" y2="11.0171">
				<stop  offset="0" style="stop-color:#DD1863"/>
				<stop  offset="0.4628" style="stop-color:#E41C55"/>
				<stop  offset="1" style="stop-color:#E91F4A"/>
			</linearGradient>
			<polygon id="XMLID_8_" class="st3" points="59.5,20 81.7,20 87,11 64.8,11.1 			"/>
			<polygon id="XMLID_7_" class="st4" points="64.8,11.1 62.1,20 59.5,20 			"/>
			<polygon id="XMLID_5_" class="st4" points="64.5,20 75.5,20 74,22.5 			"/>
		</g>
	</g>
	<g>
		<g>
			<path d="M91.1,56.4l7-12.2c0.3-0.5,0.7-1,1.2-1.4c0.5-0.4,1-0.6,1.5-0.6c0.5,0,0.9,0.1,1.3,0.3c0.4,0.2,0.7,0.4,0.9,0.8
				c0.2,0.3,0.3,0.7,0.2,1.2c-0.1,0.6-0.3,1.1-0.6,1.6L92.3,63.4c-0.8,1.4-1.7,2.1-2.9,2.1c-0.6,0-1.1-0.2-1.5-0.5
				c-0.4-0.3-0.6-0.7-0.7-1.3l-3.6-17.6c-0.1-0.6,0-1.1,0.1-1.6c0.1-0.7,0.5-1.2,1.2-1.6s1.3-0.6,2.1-0.6c0.5,0,0.9,0.2,1.3,0.6
				c0.3,0.4,0.6,0.8,0.7,1.4L91.1,56.4z"/>
			<path d="M105.9,58.2c0.2,1,0.5,1.7,1.1,2.1c0.6,0.5,1.3,0.8,2.2,0.8c1,0,1.9-0.2,2.9-0.7l1.6-0.7c0.3-0.1,0.6-0.2,1-0.2
				c0.4,0,0.7,0.1,1,0.3c0.3,0.2,0.5,0.4,0.7,0.8c0.1,0.3,0.2,0.6,0.1,1c-0.2,0.9-1,1.8-2.5,2.5c-1.8,0.9-3.7,1.4-5.8,1.4
				c-1.4,0-2.6-0.3-3.7-0.8c-1.1-0.5-2-1.3-2.7-2.4c-0.9-1.5-1.2-3.4-0.7-5.8c0.3-1.6,1-3,2-4.4c1-1.3,2.2-2.4,3.7-3.2
				c1.5-0.8,3-1.2,4.5-1.2c1.5,0,2.8,0.4,3.9,1.1c1.1,0.7,1.9,1.8,2.4,3c0.5,1.3,0.6,2.6,0.3,4.1c-0.2,0.8-0.4,1.4-0.8,1.7
				c-0.4,0.4-1,0.5-1.7,0.5H105.9z M113.1,54.8c-0.1-2.1-1-3.1-2.8-3.1c-1.5,0-2.8,1-3.9,3.1H113.1z"/>
			<path d="M126.9,49.5c1.4-1.2,2.7-1.9,3.7-1.9c0.7,0,1.3,0.2,1.7,0.7c0.4,0.5,0.6,1,0.4,1.7c-0.1,0.7-0.4,1.2-0.9,1.5
				c-0.5,0.3-1.2,0.6-2.1,0.9c-1.3,0.4-2.2,0.8-2.9,1.2c-0.6,0.4-1,1.1-1.2,2l-1.3,6.8c-0.2,0.8-0.5,1.4-1,2c-0.5,0.5-1.2,0.8-2,0.8
				c-0.8,0-1.3-0.3-1.6-0.8c-0.3-0.5-0.4-1.2-0.3-2l2.3-11.9c0.2-0.9,0.5-1.6,1-2c0.6-0.6,1.3-0.8,1.9-0.8
				C125.9,47.8,126.6,48.4,126.9,49.5z"/>
			<path d="M140.3,49.1c1.5-1,2.9-1.4,4.2-1.4c1.1,0,2.1,0.2,2.9,0.7c0.9,0.5,1.6,1.1,2.1,1.9c0.6,0.8,0.9,1.7,1.1,2.8
				c0.2,1,0.2,2.1,0,3.2c-0.6,3-1.9,5.4-4,7.1c-1.7,1.4-3.5,2.1-5.4,2.1c-1.8,0-3-0.7-3.7-2c-0.8,1.2-1.6,1.9-2.6,1.9
				c-0.8,0-1.3-0.2-1.7-0.7c-0.4-0.5-0.5-1.1-0.4-1.9l3.8-19.6c0.1-0.5,0.3-0.9,0.6-1.4c0.3-0.4,0.6-0.8,1-1
				c0.4-0.2,0.9-0.4,1.4-0.4c0.8,0,1.3,0.3,1.7,0.8c0.3,0.5,0.4,1.2,0.3,1.9L140.3,49.1z M138.9,56.5c-0.2,1.1-0.1,2.1,0.4,2.9
				c0.4,0.9,1.2,1.3,2.2,1.3c0.7,0,1.3-0.2,1.9-0.6c0.6-0.4,1.1-1,1.5-1.6c0.4-0.7,0.6-1.3,0.8-2c0.2-1.1,0.1-2.1-0.3-3
				c-0.4-0.9-1.2-1.3-2.2-1.3c-0.7,0-1.4,0.2-2,0.6c-0.6,0.4-1.1,1-1.5,1.6C139.3,55.2,139,55.8,138.9,56.5z"/>
			<path d="M152.7,56.5c0.2-1.2,0.6-2.3,1.2-3.4c0.6-1.1,1.3-2,2.2-2.8c0.9-0.8,2-1.5,3.2-2c1.2-0.5,2.3-0.7,3.4-0.7
				c1.1,0,2.2,0.2,3.2,0.7c1,0.5,1.8,1.1,2.4,2c0.6,0.8,0.9,1.8,1.1,2.8s0.1,2.2-0.1,3.4c-0.2,1.2-0.6,2.3-1.2,3.3
				c-0.6,1.1-1.3,2-2.2,2.8c-0.9,0.8-2,1.5-3.1,2c-1.2,0.5-2.3,0.7-3.4,0.7c-1.1,0-2.2-0.2-3.2-0.7c-1-0.5-1.8-1.1-2.4-2
				C152.5,61.1,152.2,59.1,152.7,56.5z M157.6,56.5c-0.1,0.7-0.1,1.3,0,2s0.4,1.2,0.8,1.6c0.4,0.4,1,0.6,1.7,0.6
				c0.7,0,1.4-0.2,2-0.6c0.6-0.4,1.1-1,1.5-1.6s0.7-1.3,0.8-2c0.1-0.7,0.1-1.4,0-2c-0.1-0.7-0.4-1.2-0.9-1.6c-0.5-0.4-1-0.6-1.8-0.6
				c-1,0-1.9,0.4-2.7,1.3C158.3,54.5,157.8,55.5,157.6,56.5z"/>
			<path d="M172.9,53.2c0.3-1.4,1-2.6,2.1-3.6c1.5-1.3,3.2-2,5.1-2c1.7,0,3.1,0.4,4.1,1.2c0.8,0.7,1.1,1.4,1,2.2
				c-0.1,0.5-0.4,1-0.9,1.5c-0.5,0.5-1,0.7-1.6,0.7c-0.3,0-0.9-0.3-1.8-0.7c-0.8-0.3-1.4-0.5-1.9-0.5c-0.8,0-1.2,0.3-1.3,0.8
				c-0.1,0.3,0,0.6,0.3,0.8c0.3,0.2,0.6,0.4,1,0.6c0.4,0.2,0.7,0.3,1,0.4c1.7,0.7,2.8,1.4,3.4,2.1c0.6,0.9,0.9,1.9,0.6,3
				c-0.2,0.8-0.5,1.6-0.9,2.3c-0.5,0.7-1,1.4-1.7,1.9c-1.3,1-2.9,1.5-4.8,1.5c-0.8,0-1.7-0.1-2.6-0.4c-1-0.2-1.8-0.6-2.4-1.2
				s-0.9-1.2-0.7-2.1c0.1-0.5,0.4-1,0.9-1.5c0.5-0.5,1-0.7,1.5-0.7c0.2,0,0.4,0,0.6,0.1c0.2,0.1,0.4,0.1,0.6,0.2
				c0.2,0.1,0.4,0.2,0.6,0.3c0.2,0.1,0.4,0.2,0.6,0.3c0.7,0.4,1.3,0.5,1.9,0.5c0.4,0,0.7-0.1,1.1-0.3c0.4-0.2,0.6-0.5,0.6-0.8
				c0.1-0.4,0-0.7-0.3-0.9c-0.3-0.2-0.7-0.4-1.3-0.6l-1.2-0.5c-1.3-0.5-2.2-1.1-2.8-1.9S172.6,54.4,172.9,53.2z"/>
			<path d="M192.1,58.2c0.2,1,0.5,1.7,1.1,2.1c0.6,0.5,1.3,0.8,2.2,0.8c1,0,1.9-0.2,2.9-0.7l1.6-0.7c0.3-0.1,0.6-0.2,1-0.2
				c0.4,0,0.7,0.1,1,0.3c0.3,0.2,0.5,0.4,0.7,0.8c0.1,0.3,0.2,0.6,0.1,1c-0.2,0.9-1,1.8-2.5,2.5c-1.8,0.9-3.7,1.4-5.8,1.4
				c-1.4,0-2.6-0.3-3.7-0.8c-1.1-0.5-2-1.3-2.7-2.4c-0.9-1.5-1.2-3.4-0.7-5.8c0.3-1.6,1-3,2-4.4c1-1.3,2.2-2.4,3.7-3.2
				c1.5-0.8,3-1.2,4.5-1.2c1.5,0,2.8,0.4,3.9,1.1c1.1,0.7,1.9,1.8,2.4,3c0.5,1.3,0.6,2.6,0.3,4.1c-0.2,0.8-0.4,1.4-0.8,1.7
				c-0.4,0.4-1,0.5-1.7,0.5H192.1z M199.2,54.8c-0.1-2.1-1-3.1-2.8-3.1c-1.5,0-2.8,1-3.9,3.1H199.2z"/>
		</g>
	</g>
	<g>
		<g>
			<path class="st6" d="M219.6,47.2l-3,15.3c-0.2,0.8-0.5,1.5-1.1,2c-0.6,0.5-1.3,0.8-2.1,0.8c-0.8,0-1.4-0.3-1.7-0.8
				c-0.4-0.6-0.5-1.2-0.3-2l3-15.3h-3.1c-0.7,0-1.3-0.2-1.7-0.6c-0.4-0.4-0.6-1-0.4-1.7c0.1-0.7,0.5-1.3,1.1-1.7
				c0.6-0.4,1.2-0.6,2-0.6h11.2c0.7,0,1.3,0.2,1.7,0.6c0.4,0.4,0.5,1,0.4,1.7c-0.1,0.7-0.5,1.3-1.1,1.7c-0.6,0.4-1.2,0.6-1.9,0.6
				H219.6z"/>
			<path class="st6" d="M227.5,58.2c0.2,1,0.5,1.7,1.1,2.1c0.6,0.5,1.3,0.8,2.2,0.8c1,0,1.9-0.2,2.9-0.7l1.6-0.7
				c0.3-0.1,0.6-0.2,1-0.2c0.4,0,0.7,0.1,1,0.3c0.3,0.2,0.5,0.4,0.7,0.8c0.1,0.3,0.2,0.6,0.1,1c-0.2,0.9-1,1.8-2.5,2.5
				c-1.8,0.9-3.7,1.4-5.8,1.4c-1.4,0-2.6-0.3-3.7-0.8c-1.1-0.5-2-1.3-2.7-2.4c-0.9-1.5-1.2-3.4-0.7-5.8c0.3-1.6,1-3,2-4.4
				c1-1.3,2.2-2.4,3.7-3.2c1.5-0.8,3-1.2,4.5-1.2c1.5,0,2.8,0.4,3.9,1.1c1.1,0.7,1.9,1.8,2.4,3c0.5,1.3,0.6,2.6,0.3,4.1
				c-0.2,0.8-0.4,1.4-0.8,1.7c-0.4,0.4-1,0.5-1.7,0.5H227.5z M234.7,54.8c-0.1-2.1-1-3.1-2.8-3.1c-1.5,0-2.8,1-3.9,3.1H234.7z"/>
			<path class="st6" d="M241.3,56.4c0.2-1.2,0.7-2.4,1.3-3.6c0.6-1.1,1.5-2.1,2.5-2.9c0.9-0.7,1.9-1.3,3-1.7
				c1.1-0.4,2.2-0.6,3.2-0.6c1.4,0,2.6,0.2,3.8,0.7c1.1,0.5,1.6,1.3,1.4,2.4c-0.1,0.6-0.4,1.2-0.9,1.6c-0.5,0.5-1,0.7-1.6,0.7
				c-0.4,0-0.9-0.2-1.6-0.5c-0.7-0.2-1.3-0.4-1.8-0.4c-0.9,0-1.8,0.4-2.6,1.1c-0.9,0.8-1.5,1.9-1.7,3.2c-0.2,0.8-0.1,1.5,0,2.2
				c0.2,0.6,0.5,1.2,1,1.5c0.5,0.4,1.2,0.6,2,0.6c0.6,0,1.2-0.2,1.9-0.5c0.7-0.3,1.1-0.4,1.4-0.4c0.6,0,1.1,0.2,1.4,0.6
				c0.3,0.4,0.4,0.9,0.3,1.4c-0.2,0.8-0.6,1.5-1.3,2c-0.7,0.5-1.6,0.9-2.5,1.2c-0.9,0.2-1.8,0.4-2.5,0.4c-2.6,0-4.5-0.9-5.7-2.6
				C241.2,61.2,240.8,59.1,241.3,56.4z"/>
			<path class="st6" d="M265,49.1c1.8-0.9,3.3-1.4,4.7-1.4c1.8,0,3.2,0.5,4.1,1.6c0.9,1.1,1.2,2.6,0.8,4.6l-1.7,8.6
				c-0.2,0.8-0.5,1.4-1,2c-0.5,0.5-1.2,0.8-2,0.8c-0.8,0-1.3-0.3-1.6-0.8c-0.3-0.5-0.4-1.2-0.3-2l1.4-7.2c0.2-1,0.1-1.8-0.2-2.4
				c-0.3-0.6-1-1-2-1c-0.8,0-1.5,0.3-2.2,0.9c-0.7,0.6-1.1,1.3-1.2,2.1l-1.5,7.5c-0.2,0.8-0.5,1.4-1,2c-0.5,0.5-1.2,0.8-2,0.8
				c-0.8,0-1.3-0.3-1.6-0.8c-0.3-0.5-0.4-1.2-0.3-2l3.8-19.4c0.1-0.5,0.3-0.9,0.6-1.4c0.3-0.4,0.6-0.8,1-1c0.4-0.2,0.9-0.4,1.4-0.4
				c0.8,0,1.3,0.3,1.7,0.8c0.3,0.5,0.4,1.2,0.3,1.9L265,49.1z"/>
			<path class="st6" d="M282.6,60.5h5.3c0.7,0,1.3,0.2,1.7,0.6c0.4,0.4,0.5,1,0.4,1.7c-0.1,0.7-0.5,1.3-1.1,1.7
				c-0.6,0.4-1.2,0.6-1.9,0.6h-7.2c-1,0-1.7-0.3-2.2-0.9c-0.5-0.6-0.6-1.4-0.4-2.4l3.2-16.7c0.2-0.8,0.5-1.5,1.1-2
				c0.6-0.5,1.3-0.8,2.1-0.8c0.8,0,1.4,0.3,1.7,0.8c0.3,0.6,0.4,1.2,0.3,2L282.6,60.5z"/>
			<path class="st6" d="M302.7,63.3c-0.7,0.7-1.5,1.2-2.1,1.6c-0.7,0.3-1.5,0.5-2.4,0.5c-1.8,0-3.3-0.6-4.5-1.9
				c-1.6-1.7-2.1-4.1-1.6-7c0.5-2.7,1.8-4.9,3.9-6.6c1.8-1.5,3.6-2.3,5.5-2.3c0.9,0,1.6,0.2,2.2,0.5s1.1,0.8,1.7,1.5
				c0.7-1.2,1.7-1.8,2.7-1.8c0.7,0,1.3,0.2,1.7,0.7c0.4,0.5,0.5,1.1,0.4,1.8l-2.3,12c-0.2,0.8-0.5,1.5-1.1,2.1
				c-0.6,0.6-1.3,0.9-2,0.9C303.5,65.3,302.9,64.6,302.7,63.3z M297,56.4c-0.2,1.2-0.2,2.2,0.2,3c0.4,0.9,1.1,1.3,2.2,1.3
				c0.7,0,1.4-0.2,2-0.6c0.6-0.4,1.1-0.9,1.5-1.5c0.4-0.6,0.7-1.3,0.8-2c0.2-1.3,0.2-2.3-0.3-3.2s-1.2-1.2-2.5-1.2
				c-1,0-1.9,0.4-2.6,1.3C297.7,54.4,297.2,55.4,297,56.4z"/>
			<path class="st6" d="M319.2,49.1c1.5-1,2.9-1.4,4.2-1.4c1.1,0,2.1,0.2,2.9,0.7c0.9,0.5,1.6,1.1,2.1,1.9c0.6,0.8,0.9,1.7,1.1,2.8
				c0.2,1,0.2,2.1,0,3.2c-0.6,3-1.9,5.4-4,7.1c-1.7,1.4-3.5,2.1-5.4,2.1c-1.8,0-3-0.7-3.7-2c-0.8,1.2-1.6,1.9-2.6,1.9
				c-0.8,0-1.3-0.2-1.7-0.7c-0.4-0.5-0.5-1.1-0.4-1.9l3.8-19.6c0.1-0.5,0.3-0.9,0.6-1.4c0.3-0.4,0.6-0.8,1-1
				c0.4-0.2,0.9-0.4,1.4-0.4c0.8,0,1.3,0.3,1.7,0.8c0.3,0.5,0.4,1.2,0.3,1.9L319.2,49.1z M317.8,56.5c-0.2,1.1-0.1,2.1,0.4,2.9
				c0.4,0.9,1.2,1.3,2.2,1.3c0.7,0,1.3-0.2,1.9-0.6c0.6-0.4,1.1-1,1.5-1.6c0.4-0.7,0.6-1.3,0.8-2c0.2-1.1,0.1-2.1-0.3-3
				c-0.4-0.9-1.2-1.3-2.2-1.3c-0.7,0-1.4,0.2-2,0.6c-0.6,0.4-1.1,1-1.5,1.6C318.2,55.2,317.9,55.8,317.8,56.5z"/>
			<path class="st6" d="M333.1,53.2c0.3-1.4,1-2.6,2.1-3.6c1.5-1.3,3.2-2,5.1-2c1.7,0,3.1,0.4,4.1,1.2c0.8,0.7,1.1,1.4,1,2.2
				c-0.1,0.5-0.4,1-0.9,1.5c-0.5,0.5-1,0.7-1.6,0.7c-0.3,0-0.9-0.3-1.8-0.7c-0.8-0.3-1.4-0.5-1.9-0.5c-0.8,0-1.2,0.3-1.3,0.8
				c-0.1,0.3,0,0.6,0.3,0.8c0.3,0.2,0.6,0.4,1,0.6c0.4,0.2,0.7,0.3,1,0.4c1.7,0.7,2.8,1.4,3.4,2.1c0.6,0.9,0.9,1.9,0.6,3
				c-0.2,0.8-0.5,1.6-0.9,2.3s-1,1.4-1.7,1.9c-1.3,1-2.9,1.5-4.8,1.5c-0.8,0-1.7-0.1-2.6-0.4c-1-0.2-1.8-0.6-2.4-1.2
				c-0.6-0.5-0.9-1.2-0.7-2.1c0.1-0.5,0.4-1,0.9-1.5c0.5-0.5,1-0.7,1.5-0.7c0.2,0,0.4,0,0.6,0.1c0.2,0.1,0.4,0.1,0.6,0.2
				c0.2,0.1,0.4,0.2,0.6,0.3c0.2,0.1,0.4,0.2,0.6,0.3c0.7,0.4,1.3,0.5,1.9,0.5c0.4,0,0.7-0.1,1.1-0.3c0.4-0.2,0.6-0.5,0.6-0.8
				c0.1-0.4,0-0.7-0.3-0.9s-0.7-0.4-1.3-0.6l-1.2-0.5c-1.3-0.5-2.2-1.1-2.8-1.9S332.8,54.4,333.1,53.2z"/>
		</g>
	</g>
</g>
</svg>
