<?xml version="1.0" encoding="utf-8"?>
<!-- Generator: Adobe Illustrator 26.0.0, SVG Export Plug-In . SVG Version: 6.00 Build 0)  -->
<svg version="1.1" id="Layer_1" xmlns="http://www.w3.org/2000/svg" xmlns:xlink="http://www.w3.org/1999/xlink" x="0px" y="0px"
	 viewBox="0 0 2000 2000" style="enable-background:new 0 0 2000 2000;" xml:space="preserve">
<style type="text/css">
	.st0{opacity:0.1;}
	.st1{fill:#FFB000;}
	.st2{fill:#FFBC00;}
	.st3{fill:#161F38;}
</style>
<g>
	<ellipse class="st0" cx="1004.26" cy="1242.69" rx="338.61" ry="14.65"/>
	<g>
		<path class="st1" d="M1191.11,578.54l-19.72-35.08H837.15l-19.65,35.08c-61.51,0.69-111.11,50.64-111.11,112.22v30.93h595.76
			v-30.93C1302.15,629.18,1252.55,579.23,1191.11,578.54z M1160.39,662.05c-2.77,2.77-6.57,4.5-10.79,4.5H859.02
			c-8.44,0-15.29-6.85-15.29-15.22c0-4.22,1.73-8.03,4.5-10.79c2.77-2.77,6.57-4.5,10.79-4.5h290.58c8.44,0,15.22,6.85,15.22,15.29
			C1164.82,655.47,1163.09,659.35,1160.39,662.05z"/>
		<path class="st1" d="M706.39,1012.27v49.68c0,50.85,33.76,93.82,80.12,107.59c10.17,3.04,20.96,4.7,32.17,4.7h371.18
			c61.99,0,112.29-50.23,112.29-112.29v-49.68H706.39z M883.37,1141.72c-31,0-56.11-25.18-56.11-56.18s25.12-56.18,56.11-56.18
			c31.06,0,56.18,25.18,56.18,56.18S914.43,1141.72,883.37,1141.72z M1125.11,1141.72c-31,0-56.11-25.18-56.11-56.18
			s25.11-56.18,56.11-56.18c31.06,0,56.18,25.18,56.18,56.18S1156.17,1141.72,1125.11,1141.72z"/>
		<path class="st1" d="M1099.21,1201.17c4.57,29.06,29.68,51.27,59.99,51.27c32.31,0,58.67-25.25,60.47-57.08
			c-11.21,3.8-23.18,5.81-35.63,5.81H1099.21z"/>
		<path class="st1" d="M788.84,1198.61c3.32,30.3,28.99,53.83,60.19,53.83c30.37,0,55.49-22.21,59.98-51.27h-96.17
			C804.61,1201.17,796.59,1200.27,788.84,1198.61z"/>
	</g>
	<g>
		<path class="st2" d="M723.39,953.87h-29.57V818.53c0-11.03,3.17-19.93,9.52-26.69c6.35-6.77,16.13-10.15,29.32-10.15
			c11.7,0,20.59,2.8,26.69,8.4c6.09,5.6,10.9,13.25,14.41,22.93l49.38,108.02c1,2,2.34,3.68,4.01,5.01c1.67,1.34,3.93,2,6.77,2
			c3.17,0,5.64-0.88,7.4-2.63c1.75-1.75,2.63-4.05,2.63-6.89V784.69h29.83v135.1c0,11.19-3.22,20.17-9.65,26.94
			c-6.43,6.77-16.17,10.15-29.19,10.15c-5.86,0-10.99-0.71-15.42-2.13s-8.27-3.5-11.53-6.26c-3.26-2.76-6.06-6.06-8.4-9.9
			c-2.34-3.84-4.35-8.18-6.02-13.03l-49.37-108.02c-2.17-4.84-5.68-7.27-10.52-7.27c-3.35,0-5.89,0.88-7.65,2.63
			c-1.75,1.76-2.63,4.14-2.63,7.15V953.87z"/>
		<path class="st2" d="M920.39,953.87h-32.58l59.4-150.38c3.17-8.02,7.64-13.66,13.41-16.92c5.77-3.26,13.16-4.88,22.18-4.88
			c8.85,0,16.17,1.62,21.93,4.88c5.77,3.26,10.15,8.9,13.16,16.92l57.15,150.38h-32.83l-51.39-136.09c-1.5-3.84-4.26-5.77-8.27-5.77
			c-4.01,0-6.85,1.92-8.52,5.77L920.39,953.87z"/>
		<path class="st2" d="M1096.84,784.69l51.38,136.09c1.51,3.85,4.26,5.77,8.27,5.77c3.84,0,6.6-1.92,8.27-5.77l53.89-136.09h32.83
			l-59.65,150.39c-3.18,8.02-7.65,13.66-13.42,16.91c-5.76,3.26-13.08,4.89-21.93,4.89c-8.36,0-15.58-1.55-21.68-4.64
			c-6.1-3.09-10.74-8.81-13.91-17.16l-56.64-150.39H1096.84z"/>
		<path class="st2" d="M1306.12,784.69v169.18h-29.57V784.69H1306.12z"/>
	</g>
	<g>
		<path class="st3" d="M601.79,1288.33v29.4h-86.22c-7.64,0-13.21,1.87-16.69,5.61c-3.49,3.73-5.23,8.52-5.23,14.32
			c0,2.49,0.37,4.95,1.12,7.35c0.75,2.41,2.07,4.57,3.98,6.48c1.91,1.91,4.44,3.41,7.6,4.48c3.15,1.09,7.23,1.62,12.21,1.62h39.37
			c11.46,0,20.85,1.46,28.16,4.36c7.31,2.91,13.08,6.69,17.32,11.34c4.23,4.65,7.14,9.97,8.72,15.94
			c1.58,5.98,2.37,11.96,2.37,17.94c0,7.15-1,13.7-2.99,19.69c-1.99,5.98-5.15,11.18-9.47,15.57c-4.32,4.4-9.85,7.85-16.57,10.35
			c-6.73,2.49-14.91,3.73-24.54,3.73h-93.7v-29.4h94.69c7.98,0,13.83-1.95,17.57-5.86c3.74-3.9,5.61-8.93,5.61-15.08
			c0-2.65-0.42-5.27-1.25-7.85c-0.83-2.57-2.24-4.82-4.23-6.73c-1.99-1.91-4.69-3.44-8.1-4.61c-3.41-1.16-7.69-1.74-12.84-1.74
			h-39.12c-11.3,0-20.52-1.41-27.66-4.23c-7.15-2.82-12.76-6.56-16.82-11.22c-4.07-4.65-6.9-9.88-8.48-15.7
			c-1.58-5.81-2.36-11.63-2.36-17.44c0-6.98,0.95-13.41,2.86-19.31c1.91-5.9,4.98-11,9.22-15.32c4.24-4.32,9.68-7.69,16.32-10.1
			c6.65-2.4,14.62-3.61,23.93-3.61H601.79z"/>
		<path class="st3" d="M780.96,1288.33v29.4h-65.04c-16.28,0-28.11,4.28-35.51,12.84s-11.09,22.55-11.09,41.99
			c0,19.27,3.65,33.19,10.97,41.74c7.31,8.56,19.19,12.83,35.63,12.83h65.04v29.4h-65.04c-24.59,0-43.4-6.94-56.44-20.81
			c-13.05-13.87-19.56-34.93-19.56-63.17c0-28.41,6.52-49.54,19.56-63.42c13.04-13.86,31.85-20.81,56.44-20.81H780.96z"/>
		<path class="st3" d="M845.5,1288.33v68.53h85.97v-68.53h29.65v168.21h-29.65v-70.27H845.5v70.27h-29.4v-168.21H845.5z"/>
		<path class="st3" d="M1094.44,1288.33c24.58,0,43.4,6.98,56.45,20.94c13.03,13.95,19.56,35.14,19.56,63.54
			c0,28.24-6.52,49.26-19.56,63.04c-13.05,13.8-31.86,20.69-56.45,20.69h-22.93c-24.59,0-43.4-6.89-56.44-20.69
			c-13.05-13.78-19.56-34.8-19.56-63.04c0-28.41,6.52-49.59,19.56-63.54c13.04-13.95,31.85-20.94,56.44-20.94H1094.44z
			 M1071.52,1317.73c-16.28,0-28.11,4.32-35.51,12.96c-7.4,8.64-11.09,22.68-11.09,42.11c0,19.27,3.65,33.15,10.97,41.61
			c7.31,8.48,19.19,12.71,35.63,12.71h22.93c16.11,0,27.86-4.27,35.26-12.83c7.39-8.56,11.09-22.47,11.09-41.74
			c0-19.27-3.65-33.22-10.96-41.86c-7.31-8.64-19.11-12.96-35.39-12.96H1071.52z"/>
		<path class="st3" d="M1297.79,1288.33c24.58,0,43.4,6.98,56.45,20.94c13.03,13.95,19.56,35.14,19.56,63.54
			c0,28.24-6.52,49.26-19.56,63.04c-13.05,13.8-31.86,20.69-56.45,20.69h-22.93c-24.59,0-43.4-6.89-56.44-20.69
			c-13.05-13.78-19.56-34.8-19.56-63.04c0-28.41,6.52-49.59,19.56-63.54c13.04-13.95,31.85-20.94,56.44-20.94H1297.79z
			 M1274.86,1317.73c-16.28,0-28.11,4.32-35.51,12.96c-7.4,8.64-11.09,22.68-11.09,42.11c0,19.27,3.65,33.15,10.97,41.61
			c7.31,8.48,19.19,12.71,35.63,12.71h22.93c16.11,0,27.86-4.27,35.26-12.83c7.39-8.56,11.09-22.47,11.09-41.74
			c0-19.27-3.65-33.22-10.96-41.86c-7.31-8.64-19.11-12.96-35.39-12.96H1274.86z"/>
		<path class="st3" d="M1436.08,1288.33v109.9c0,3.98,0.54,7.77,1.62,11.34s2.95,6.65,5.61,9.22c2.65,2.58,6.19,4.61,10.59,6.11
			c4.4,1.49,9.92,2.24,16.57,2.24h65.29v29.4h-67.04c-11.13,0-20.65-1.45-28.53-4.36c-7.89-2.9-14.32-6.94-19.31-12.08
			c-4.98-5.15-8.6-11.26-10.84-18.32c-2.25-7.06-3.37-14.83-3.37-23.3v-110.15H1436.08z"/>
	</g>
	<path class="st3" d="M706.39,1012.27h116.99l-36.88,157.26c-46.35-13.77-80.12-56.73-80.12-107.59V1012.27z"/>
	<path class="st3" d="M848.22,640.53c-2.77,2.77-4.5,6.57-4.5,10.79c0,8.37,6.85,15.22,15.29,15.22h45.39l-12.94,55.14H706.39
		v-30.93c0-61.58,49.61-111.53,111.11-112.22l19.65-35.08h96.1l-21.65,92.57h-52.58C854.8,636.03,850.99,637.76,848.22,640.53z"/>
</g>
</svg>
