<?xml version="1.0" encoding="utf-8"?>
<!-- Generator: Adobe Illustrator 24.1.2, SVG Export Plug-In . SVG Version: 6.00 Build 0)  -->
<svg version="1.1" id="Layer_1" xmlns="http://www.w3.org/2000/svg" xmlns:xlink="http://www.w3.org/1999/xlink" x="0px" y="0px"
	 viewBox="0 0 53.7 54.5" style="enable-background:new 0 0 53.7 54.5;" xml:space="preserve">
<style type="text/css">
	.st0{fill-rule:evenodd;clip-rule:evenodd;fill:#FFFFFF;}
	.st1{fill:#FFFFFF;}
</style>
<g id="SKYPE_006_1_">
	<path id="LOGO_3_" class="st1" d="M52.3,32.4c0.6-3,0.6-6.1,0.1-9.2c-2.2-13.5-15-23-28.5-21.2c-0.8,0.1-1.4,0-2.2-0.4
		C16-1.3,9.1-0.3,4.4,4.3c-4.6,4.5-5.7,11.5-2.8,17.2c0.3,0.6,0.4,1.1,0.3,1.8c-0.3,1.4-0.3,2.8-0.4,4.2c0,0.8,0.1,1.7,0.2,2.6
		c1.5,14.6,14.9,24.9,29.5,22.6c0.4-0.1,0.8,0,1.2,0.2c2.8,1.4,5.7,1.7,8.7,1.3c9.8-1.6,15.2-11.6,11.3-20.7
		C52.3,33.2,52.2,32.9,52.3,32.4z M39.7,40.4c-1.6,1.9-3.7,3.1-6,3.7c-4.4,1.3-8.8,1.3-13.2,0c-4-1.2-6.9-3.7-8.1-7.8
		c-0.8-2.9,1.1-5.1,4-4.8c1.3,0.1,2.1,0.9,2.7,2c0.4,0.7,0.7,1.4,1,2c1.1,2.2,2.8,3.5,5.3,3.8c2,0.2,4,0.1,5.9-0.8
		c0.7-0.3,1.4-0.8,1.9-1.4c1.4-1.6,1.2-3.9-0.6-5.2c-1.7-1.2-3.7-1.6-5.6-2c-2.8-0.6-5.6-1.2-8.2-2.4c-2.7-1.2-4.9-3-5.6-6
		c-0.8-3.6,0.2-6.6,3-8.9c2.5-2,5.5-2.7,8.7-3c0.7-0.1,1.5,0,2.2,0c2.9-0.1,5.7,0.3,8.3,1.6c2,1,3.7,2.4,4.6,4.5
		c0.5,1,0.7,2.1,0.4,3.2c-0.4,1.3-1.3,2.2-2.6,2.5c-1.4,0.3-2.7,0.1-3.6-1.3c-0.4-0.6-0.8-1.3-1.2-1.9c-1.2-2.1-3-3.2-5.4-3.2
		c-1.1,0-2.2,0-3.4,0.2c-1,0.2-1.9,0.7-2.7,1.4c-1.3,1.2-1.3,3,0.1,4.1c0.9,0.8,2.1,1.2,3.2,1.5c2.7,0.7,5.4,1.3,8.1,2
		c1.5,0.4,2.9,1,4.2,1.6C43.4,29.1,42.9,36.7,39.7,40.4z"/>
</g>
</svg>
